<svg id="Layer_1" data-name="Layer 1" xmlns="http://www.w3.org/2000/svg" viewBox="0 0 631.41 500"><defs><style>.cls-1{fill:#005de5;}</style></defs><path class="cls-1" d="M208.58,344.58A89.34,89.34,0,1,1,198.4,170.82a163.72,163.72,0,0,1,14.22-21.23A113.13,113.13,0,1,0,225.09,364,162,162,0,0,1,208.58,344.58Z"/><path class="cls-1" d="M296.54,258.87A113.09,113.09,0,0,0,244.92,164a129,129,0,0,0-14.29,19.08,89.21,89.21,0,0,1,8.53,145.52,128.56,128.56,0,0,0,16.41,17.31A112.91,112.91,0,0,0,296.54,258.87Z"/><path class="cls-1" d="M345.38,273.88H332.12l-2,6.1H319.17l13.64-37.41h12L358.38,280h-11Zm-2.6-8-4-12.1-4,12.1Z"/><path class="cls-1" d="M373.13,271.54h15.55V280H361.46v-7.91L376.85,251H361.46v-8.38h27.22v7.91Z"/><path class="cls-1" d="M432.43,261.22a11.39,11.39,0,0,1-4.72,4.46,16.4,16.4,0,0,1-7.72,1.67h-5.15V280h-10.4V242.57H420a16.87,16.87,0,0,1,7.66,1.59,10.89,10.89,0,0,1,4.75,4.41A12.9,12.9,0,0,1,434,255,12.45,12.45,0,0,1,432.43,261.22ZM423.38,255c0-2.72-1.47-4.09-4.4-4.09h-4.14v8.12H419Q423.38,259.07,423.38,255Z"/><path class="cls-1" d="M461.85,273.88H448.58l-2,6.1H435.64l13.63-37.41h12L474.85,280h-11Zm-2.6-8-4-12.1-4,12.1Z"/><path class="cls-1" d="M512.26,242.57,499.1,268.09V280H488.65V268.09l-13.16-25.52h11.88L494,257l6.58-14.43Z"/><path class="cls-1" d="M518.84,277.25a11.21,11.21,0,0,1-4.51-8.89h11.09a4.1,4.1,0,0,0,1.16,2.86,4.2,4.2,0,0,0,5,.19,2.37,2.37,0,0,0,.93-2,2.81,2.81,0,0,0-1.54-2.55,27.07,27.07,0,0,0-5-2A45.85,45.85,0,0,1,520,262.5a11.55,11.55,0,0,1-3.93-3.35,9.31,9.31,0,0,1-1.67-5.76,10.46,10.46,0,0,1,1.81-6.18,11.22,11.22,0,0,1,5-3.9,18.73,18.73,0,0,1,7.22-1.32q6.52,0,10.43,3a11,11,0,0,1,4.16,8.57h-11.3a3.38,3.38,0,0,0-1-2.55,3.72,3.72,0,0,0-2.53-.85,2.72,2.72,0,0,0-1.91.69,2.57,2.57,0,0,0-.74,2,2.44,2.44,0,0,0,.82,1.83,7.33,7.33,0,0,0,2,1.33q1.22.56,3.6,1.41a44.33,44.33,0,0,1,5.87,2.41,12.1,12.1,0,0,1,4,3.34,8.64,8.64,0,0,1,1.67,5.44,11.06,11.06,0,0,1-1.67,6,11.49,11.49,0,0,1-4.83,4.19,16.77,16.77,0,0,1-7.45,1.54A17.51,17.51,0,0,1,518.84,277.25Z"/><path class="cls-1" d="M329.77,300.77a5.84,5.84,0,0,1-4.1,1.28H322.4V309h-1.62V292.76h4.89a5.8,5.8,0,0,1,4.08,1.27,4.83,4.83,0,0,1,0,6.74Zm-.3-3.35a3.21,3.21,0,0,0-.91-2.46,4.16,4.16,0,0,0-2.89-.83H322.4v6.53h3.27Q329.47,300.66,329.47,297.42Z"/><path class="cls-1" d="M333.88,299.19a5.48,5.48,0,0,1,2.15-2.27,6.14,6.14,0,0,1,3.12-.8,5.71,5.71,0,0,1,3.11.83,4.94,4.94,0,0,1,1.89,2.13V296.3h1.62V309h-1.62v-2.8a5.08,5.08,0,0,1-1.91,2.14,5.64,5.64,0,0,1-3.12.85,6,6,0,0,1-3.09-.82,5.53,5.53,0,0,1-2.15-2.29,7.26,7.26,0,0,1-.78-3.43A7.18,7.18,0,0,1,333.88,299.19Zm9.64.75a4.36,4.36,0,0,0-1.7-1.78,4.62,4.62,0,0,0-2.37-.63,4.81,4.81,0,0,0-2.41.6,4.36,4.36,0,0,0-1.68,1.75,6.37,6.37,0,0,0,0,5.44,4.34,4.34,0,0,0,1.68,1.79,5,5,0,0,0,4.78,0,4.39,4.39,0,0,0,1.7-1.79,6,6,0,0,0,0-5.37Z"/><path class="cls-1" d="M359.9,296.3l-7.51,18.6H350.7l2.46-6L348,296.3h1.78l4.31,10.8,4.17-10.8Z"/><path class="cls-1" d="M380.78,297.47a5.54,5.54,0,0,1,1.4,4.07V309h-1.6v-7.23a4.5,4.5,0,0,0-1-3.15,3.5,3.5,0,0,0-2.71-1.09,3.63,3.63,0,0,0-2.84,1.19,4.89,4.89,0,0,0-1.07,3.42V309h-1.6v-7.23a4.54,4.54,0,0,0-1-3.15,3.56,3.56,0,0,0-2.74-1.09,3.65,3.65,0,0,0-2.85,1.19,4.93,4.93,0,0,0-1.06,3.42V309H362.1V296.3h1.62v2.18a4.11,4.11,0,0,1,1.71-1.79,5,5,0,0,1,2.48-.62,5.27,5.27,0,0,1,2.88.79,4.45,4.45,0,0,1,1.8,2.32,4.24,4.24,0,0,1,1.75-2.31,5.07,5.07,0,0,1,2.81-.8A5,5,0,0,1,380.78,297.47Z"/><path class="cls-1" d="M397.16,303.25H386.67a5.11,5.11,0,0,0,.7,2.46,4,4,0,0,0,1.64,1.54,4.78,4.78,0,0,0,2.22.52,4.49,4.49,0,0,0,2.66-.77,3.59,3.59,0,0,0,1.42-2.06H397a5.37,5.37,0,0,1-2,3,6,6,0,0,1-3.81,1.17,6.38,6.38,0,0,1-3.19-.8,5.68,5.68,0,0,1-2.21-2.27,7,7,0,0,1-.8-3.44,7.26,7.26,0,0,1,.78-3.45,5.48,5.48,0,0,1,2.2-2.27,6.48,6.48,0,0,1,3.22-.79,6.1,6.1,0,0,1,3.16.79,5.43,5.43,0,0,1,2.09,2.11,6,6,0,0,1,.73,3C397.21,302.53,397.19,303,397.16,303.25ZM395,299.52a3.88,3.88,0,0,0-1.61-1.5,4.91,4.91,0,0,0-2.23-.51,4.39,4.39,0,0,0-3.08,1.16,4.6,4.6,0,0,0-1.41,3.26h8.89A4.51,4.51,0,0,0,395,299.52Z"/><path class="cls-1" d="M409.81,297.47a5.47,5.47,0,0,1,1.43,4.07V309h-1.59v-7.23a4.46,4.46,0,0,0-1-3.15,3.73,3.73,0,0,0-2.82-1.09,3.83,3.83,0,0,0-2.92,1.16,4.85,4.85,0,0,0-1.09,3.41V309h-1.62V296.3h1.62v2.16a4.18,4.18,0,0,1,1.74-1.77,5.31,5.31,0,0,1,2.57-.62A5.1,5.1,0,0,1,409.81,297.47Z"/><path class="cls-1" d="M416.94,297.67v7.85a2.27,2.27,0,0,0,.44,1.6,2.17,2.17,0,0,0,1.55.44h1.49V309h-1.74a3.58,3.58,0,0,1-2.55-.8,3.5,3.5,0,0,1-.83-2.63v-7.85h-1.76V296.3h1.76v-3.17h1.64v3.17h3.48v1.37Z"/><path class="cls-1" d="M431.52,308.56a4.63,4.63,0,0,1-1.91-1.56,4.07,4.07,0,0,1-.74-2.22h1.71a3.28,3.28,0,0,0,1,2.07,3.74,3.74,0,0,0,2.71.9,3.83,3.83,0,0,0,2.61-.85,2.73,2.73,0,0,0,1-2.14,2.54,2.54,0,0,0-.53-1.68,3.29,3.29,0,0,0-1.32-.95,18.91,18.91,0,0,0-2.18-.68,19.51,19.51,0,0,1-2.57-.86,4.12,4.12,0,0,1-1.62-1.3,3.82,3.82,0,0,1-.67-2.38,4,4,0,0,1,.64-2.24,4.41,4.41,0,0,1,1.83-1.54,6.31,6.31,0,0,1,2.71-.56,5.62,5.62,0,0,1,3.63,1.11,4.11,4.11,0,0,1,1.59,2.83h-1.76a3,3,0,0,0-1.09-1.77,4.3,4.3,0,0,0-4.94,0,2.56,2.56,0,0,0-1,2.12,2.45,2.45,0,0,0,.53,1.64,3.35,3.35,0,0,0,1.33.95,20.11,20.11,0,0,0,2.17.7,18.55,18.55,0,0,1,2.55.87,4.07,4.07,0,0,1,1.64,1.31,3.76,3.76,0,0,1,.67,2.36,4.19,4.19,0,0,1-.6,2.15,4.39,4.39,0,0,1-1.78,1.65,6.06,6.06,0,0,1-2.83.62A6.71,6.71,0,0,1,431.52,308.56Z"/><path class="cls-1" d="M442.65,293.57a1.18,1.18,0,0,1-.35-.86,1.12,1.12,0,0,1,.35-.84,1.13,1.13,0,0,1,.83-.34,1.15,1.15,0,0,1,.84.34,1.11,1.11,0,0,1,.34.84,1.18,1.18,0,0,1-1.18,1.21A1.14,1.14,0,0,1,442.65,293.57Zm1.64,2.73V309h-1.62V296.3Z"/><path class="cls-1" d="M466.65,297.47a5.5,5.5,0,0,1,1.41,4.07V309h-1.6v-7.23a4.5,4.5,0,0,0-1-3.15,3.51,3.51,0,0,0-2.71-1.09,3.65,3.65,0,0,0-2.85,1.19,4.93,4.93,0,0,0-1.06,3.42V309h-1.6v-7.23a4.5,4.5,0,0,0-1-3.15,3.52,3.52,0,0,0-2.73-1.09,3.65,3.65,0,0,0-2.85,1.19,4.93,4.93,0,0,0-1.06,3.42V309H448V296.3h1.62v2.18a4.11,4.11,0,0,1,1.71-1.79,5,5,0,0,1,2.48-.62,5.27,5.27,0,0,1,2.88.79,4.45,4.45,0,0,1,1.8,2.32,4.24,4.24,0,0,1,1.75-2.31,5.07,5.07,0,0,1,2.81-.8A4.91,4.91,0,0,1,466.65,297.47Z"/><path class="cls-1" d="M475.15,297a5.64,5.64,0,0,1,3.12-.84,6.08,6.08,0,0,1,3.09.8,5.48,5.48,0,0,1,2.15,2.27,7.18,7.18,0,0,1,.78,3.41,7.26,7.26,0,0,1-.78,3.43,5.53,5.53,0,0,1-2.15,2.29,6,6,0,0,1-3.09.82,5.68,5.68,0,0,1-3.11-.85,5.05,5.05,0,0,1-1.92-2.12v8.76h-1.6V296.3h1.6v2.78A5.15,5.15,0,0,1,475.15,297Zm6.88,2.92a4.36,4.36,0,0,0-1.68-1.75,4.81,4.81,0,0,0-2.41-.6,4.62,4.62,0,0,0-2.37.63,4.36,4.36,0,0,0-1.7,1.78,6,6,0,0,0,0,5.37,4.39,4.39,0,0,0,1.7,1.79,5,5,0,0,0,4.78,0,4.34,4.34,0,0,0,1.68-1.79,6.28,6.28,0,0,0,0-5.44Z"/><path class="cls-1" d="M488.9,291.81V309h-1.62V291.81Z"/><path class="cls-1" d="M492.56,293.57a1.18,1.18,0,0,1-.35-.86,1.12,1.12,0,0,1,.35-.84,1.13,1.13,0,0,1,.83-.34,1.15,1.15,0,0,1,.84.34,1.11,1.11,0,0,1,.34.84,1.18,1.18,0,0,1-1.18,1.21A1.14,1.14,0,0,1,492.56,293.57Zm1.64,2.73V309h-1.62V296.3Z"/><path class="cls-1" d="M499.92,296.3H507V309h-1.62V297.67h-5.45V309H498.3V297.67h-1.74V296.3h1.74v-.88a4,4,0,0,1,1.05-3,5,5,0,0,1,3.42-1v1.39a3.19,3.19,0,0,0-2.21.6,2.65,2.65,0,0,0-.64,2Zm7.11-4.43a1.12,1.12,0,0,1,.35.84,1.18,1.18,0,0,1-.35.86,1.14,1.14,0,0,1-.83.35,1.13,1.13,0,0,1-.83-.35,1.14,1.14,0,0,1-.35-.86,1.08,1.08,0,0,1,.35-.84,1.12,1.12,0,0,1,.83-.34A1.13,1.13,0,0,1,507,291.87Z"/><path class="cls-1" d="M522,303.25H511.48a5.22,5.22,0,0,0,.69,2.46,4.13,4.13,0,0,0,1.65,1.54,4.78,4.78,0,0,0,2.22.52,4.44,4.44,0,0,0,2.65-.77,3.56,3.56,0,0,0,1.43-2.06h1.71a5.37,5.37,0,0,1-2,3,6,6,0,0,1-3.81,1.17,6.44,6.44,0,0,1-3.2-.8,5.75,5.75,0,0,1-2.21-2.27,7.13,7.13,0,0,1-.8-3.44,7.26,7.26,0,0,1,.79-3.45,5.48,5.48,0,0,1,2.2-2.27,6.46,6.46,0,0,1,3.22-.79,6.1,6.1,0,0,1,3.16.79,5.43,5.43,0,0,1,2.09,2.11,6.15,6.15,0,0,1,.73,3C522,302.53,522,303,522,303.25Zm-2.16-3.73a3.94,3.94,0,0,0-1.61-1.5,4.94,4.94,0,0,0-2.23-.51,4.39,4.39,0,0,0-3.08,1.16,4.6,4.6,0,0,0-1.41,3.26h8.89A4.51,4.51,0,0,0,519.81,299.52Z"/><path class="cls-1" d="M525,299.19a5.57,5.57,0,0,1,2.16-2.27,6.14,6.14,0,0,1,3.12-.8,5.73,5.73,0,0,1,3,.81,4.93,4.93,0,0,1,2,2.11v-7.23h1.62V309h-1.62v-2.83a4.89,4.89,0,0,1-1.9,2.17,5.65,5.65,0,0,1-3.1.85,6.05,6.05,0,0,1-3.12-.82A5.53,5.53,0,0,1,525,306a7.26,7.26,0,0,1-.78-3.43A7.07,7.07,0,0,1,525,299.19Zm9.63.75a4.36,4.36,0,0,0-1.7-1.78,4.62,4.62,0,0,0-2.37-.63,4.81,4.81,0,0,0-2.41.6,4.36,4.36,0,0,0-1.68,1.75,6.37,6.37,0,0,0,0,5.44,4.34,4.34,0,0,0,1.68,1.79,5,5,0,0,0,4.78,0,4.39,4.39,0,0,0,1.7-1.79,6,6,0,0,0,0-5.37Z"/><path class="cls-1" d="M541.14,308.72a1.17,1.17,0,0,1-.34-.86,1.16,1.16,0,0,1,1.18-1.18,1.08,1.08,0,0,1,.82.34,1.11,1.11,0,0,1,.34.84,1.17,1.17,0,0,1-.34.86,1.09,1.09,0,0,1-.82.35A1.12,1.12,0,0,1,541.14,308.72Zm1.65-16-.21,11.9h-1.36l-.19-11.9Z"/></svg>