<svg width='24' height='24' viewBox='0 0 24 24' xmlns='http://www.w3.org/2000/svg' xmlns:xlink='http://www.w3.org/1999/xlink'><rect width='24' height='24' stroke='none' fill='#000000' opacity='0'/>
    <g transform="matrix(0.42 0 0 0.42 12 12)" >
        <g style="" >
            <g transform="matrix(1 0 0 1 0 0)" >
                <path style="stroke: none; stroke-width: 1; stroke-dasharray: none; stroke-linecap: butt; stroke-dashoffset: 0; stroke-linejoin: miter; stroke-miterlimit: 4; fill: rgb(33,150,243); fill-rule: nonzero; opacity: 1;" transform=" translate(-24, -24)" d="M 7 8 L 41 8 C 43.21 8 45 9.791 45 12 L 45 36 C 45 38.209 43.21 40 41 40 L 7 40 C 4.791 40 3 38.209 3 36 L 3 12 C 3 9.791 4.791 8 7 8" stroke-linecap="round" />
            </g>
            <g transform="matrix(1 0 0 1 -0.71 0)" >
                <path style="stroke: none; stroke-width: 1; stroke-dasharray: none; stroke-linecap: butt; stroke-dashoffset: 0; stroke-linejoin: miter; stroke-miterlimit: 4; fill: rgb(255,255,255); fill-rule: nonzero; opacity: 1;" transform=" translate(-23.29, -24)" d="M 17.038 28.725 L 12.746 28.725 L 11.909 32 L 8.581 32 L 13.451 16 L 16.331 16 L 21.233999999999998 32 L 17.872999999999998 32 L 17.038 28.725 z M 13.431 26.033 L 16.343 26.033 L 14.887 20.330000000000002 L 13.431 26.033 z M 26 26.374 L 26 32 L 23 32 L 23 16 L 28 16 C 29.542 16 30.771 16.491 31.689 17.473 C 32.605 18.454 33 19.729 33 21.297 C 33 22.865000000000002 32.61 24.103 31.705 25.011 C 30.798 25.919 29.541999999999998 26.374 27.936999999999998 26.374 L 26 26.374 z M 26 23.681 L 28.116 23.681 C 28.715 23.681 29.179 23.48 29.509 23.077 C 29.836 22.674 30 22.088 30 21.319 C 30 20.52 29.833 19.884999999999998 29.497 19.412 C 29.162 18.939999999999998 28.712 18.7 28.148 18.692 L 26 18.692 L 26 23.681 z M 38 32 L 35 32 L 35 16 L 38 16 L 38 32 z" stroke-linecap="round" />
            </g>
        </g>
    </g>
</svg>